<?xml version="1.0" standalone="no"?><!DOCTYPE svg PUBLIC "-//W3C//DTD SVG 1.1//EN" "http://www.w3.org/Graphics/SVG/1.1/DTD/svg11.dtd"><svg t="1488530683379" class="icon" style="" viewBox="0 0 1024 1024" version="1.1" xmlns="http://www.w3.org/2000/svg" p-id="1010" xmlns:xlink="http://www.w3.org/1999/xlink" width="45" height="45"><defs><style type="text/css"></style></defs><path d="M206.887936 59.034624l613.086208 0c77.847552 0 140.947456 62.606336 140.947456 139.853824l0 615.299072c0 77.193216-63.09888 139.799552-140.947456 139.799552L206.887936 953.987072c-77.847552 0-140.946432-62.60736-140.946432-139.799552L65.941504 198.888448C65.941504 121.64096 129.040384 59.034624 206.887936 59.034624L206.887936 59.034624z" p-id="1011" class="" fill="#545454"></path><path d="M359.006208 255.854592c-28.599296 0-97.26976 51.899392-97.26976 99.4816 0 139.0336 250.261504 403.935232 406.148096 403.935232 42.88512 0 97.242112-46.108672 97.242112-99.535872 0-18.301952-111.55456-99.482624-137.284608-99.482624-26.441728 0-45.753344 23.436288-68.64384 23.436288-22.8352 0-125.812736-103.194624-125.812736-128.816128 0-25.566208 22.8352-38.07744 22.8352-64.4096C456.219648 371.449856 387.549184 255.854592 359.006208 255.854592L359.006208 255.854592z" p-id="1012" class="selected" fill="#e6e6e6"></path></svg>